<svg width="1920" height="164" viewBox="0 0 1920 164" fill="none" xmlns="http://www.w3.org/2000/svg">
<path fill-rule="evenodd" clip-rule="evenodd" d="M557.874 0H0V164L5.73259e-05 163.919C152.959 45.9685 400.368 0.0244751 557.874 0ZM558.249 0C757.428 0.015686 865.528 18.8781 980.856 39.0018C1051.85 51.3901 1125.59 64.2563 1225 73.4981C1323.56 82.6608 1406.45 75.4352 1485.09 68.5798C1622.67 56.5871 1747.25 45.7274 1920 125.72L1920 0H558.249Z" fill="white"/>
<path opacity="0.15" fill-rule="evenodd" clip-rule="evenodd" d="M7.62859e-06 163.989L0 60.7132C115.287 9.56125 221.025 9.83412 330.079 25.2866C212.377 50.1626 89.8819 94.6091 5.73259e-05 163.919L7.62859e-06 163.989ZM1920 125.72L1920 115.748C1812.54 27.9855 1617.14 0.0198039 1374.26 0H1373.85C1252.95 0.0174097 1153.55 21.6263 1055.69 42.902C1047.97 44.5785 1040.27 46.2529 1032.57 47.9146C1088.58 57.336 1149.36 66.4662 1225 73.4981C1323.56 82.6608 1406.45 75.4352 1485.09 68.5798C1622.67 56.5871 1747.25 45.7274 1920 125.72Z" fill="url(#paint0_linear)"/>
<defs>
<linearGradient id="paint0_linear" x1="961.725" y1="1739.72" x2="961.725" y2="-191.748" gradientUnits="userSpaceOnUse">
<stop stop-color="#00ECBC"/>
<stop offset="1" stop-color="#007ADF"/>
</linearGradient>
</defs>
</svg>
