<svg width="1920" height="218" viewBox="0 0 1920 218" fill="none" xmlns="http://www.w3.org/2000/svg">
<path fill-rule="evenodd" clip-rule="evenodd" d="M1920 218V0C1750.45 116.342 1616.18 93.3249 1485.5 70.9243C1398.83 56.0681 1313.75 41.4829 1221 68.0001C1148.25 88.7995 1094.46 114.26 1043.75 138.258C954.812 180.35 875.379 217.945 719.844 218H1920ZM718.942 218H0V4.00006C154.408 160.407 406.71 217.932 718.942 218Z" fill="white"/>
<path opacity="0.15" fill-rule="evenodd" clip-rule="evenodd" d="M0 4.00039V130.373C109.725 186.205 210.8 188.615 314.317 173.439C186.702 139.745 80.1596 85.1975 0 4.00039ZM1030.47 144.532C1038.87 146.608 1047.27 148.702 1055.69 150.799C1153.59 175.208 1253.03 200 1374 200C1617 200 1812.5 167.941 1920 67.2572C1920 44.5103 1920 22.142 1920 6.10352e-05C1750.45 116.342 1616.18 93.3249 1485.5 70.9243C1398.83 56.0681 1313.75 41.4829 1221 68.0001C1148.25 88.7995 1094.46 114.26 1043.75 138.258C1039.3 140.362 1034.88 142.455 1030.47 144.532Z" fill="url(#paint0_linear)"/>
<defs>
<linearGradient id="paint0_linear" x1="961.725" y1="-1795.15" x2="961.725" y2="419.902" gradientUnits="userSpaceOnUse">
<stop stop-color="#007ADF"/>
<stop offset="1" stop-color="#00ECBC"/>
</linearGradient>
</defs>
</svg>
