<svg width="30" height="30" viewBox="0 0 30 30" fill="none" xmlns="http://www.w3.org/2000/svg">
<circle cx="14.9998" cy="15" r="15" fill="white"/>
<path d="M23.171 13.3678H22.4997V13.3332H14.9997V16.6665H19.7093C19.0222 18.6069 17.176 19.9998 14.9997 19.9998C12.2385 19.9998 9.99972 17.7611 9.99972 14.9998C9.99972 12.2386 12.2385 9.99984 14.9997 9.99984C16.2743 9.99984 17.4339 10.4807 18.3168 11.2661L20.6739 8.909C19.1855 7.52192 17.1947 6.6665 14.9997 6.6665C10.3976 6.6665 6.66638 10.3978 6.66638 14.9998C6.66638 19.6019 10.3976 23.3332 14.9997 23.3332C19.6018 23.3332 23.333 19.6019 23.333 14.9998C23.333 14.4411 23.2755 13.8957 23.171 13.3678Z" fill="#FFC107"/>
<path d="M7.6272 11.1211L10.3651 13.129C11.1059 11.2948 12.9001 9.99984 14.9997 9.99984C16.2743 9.99984 17.4339 10.4807 18.3168 11.2661L20.6739 8.909C19.1855 7.52192 17.1947 6.6665 14.9997 6.6665C11.7989 6.6665 9.02303 8.47359 7.6272 11.1211Z" fill="#FF3D00"/>
<path d="M14.9997 23.3331C17.1522 23.3331 19.108 22.5094 20.5868 21.1698L18.0076 18.9873C17.1428 19.645 16.0861 20.0007 14.9997 19.9998C12.8322 19.9998 10.9918 18.6177 10.2984 16.689L7.58093 18.7827C8.9601 21.4815 11.7609 23.3331 14.9997 23.3331Z" fill="#4CAF50"/>
<path d="M23.171 13.3681H22.4998V13.3335H14.9998V16.6668H19.7093C19.3807 17.5903 18.7887 18.3973 18.0064 18.9881L18.0077 18.9872L20.5868 21.1697C20.4043 21.3356 23.3331 19.1668 23.3331 15.0002C23.3331 14.4414 23.2756 13.896 23.171 13.3681Z" fill="#1976D2"/>
</svg>
