<svg width="16" height="16" viewBox="0 0 16 16" fill="none" xmlns="http://www.w3.org/2000/svg">
<path d="M8.00154 3.8978C5.73138 3.8978 3.90026 5.72933 3.90026 8C3.90026 10.2707 5.73138 12.1022 8.00154 12.1022C10.2717 12.1022 12.1028 10.2707 12.1028 8C12.1028 5.72933 10.2717 3.8978 8.00154 3.8978ZM8.00154 10.667C6.5345 10.667 5.33517 9.47094 5.33517 8C5.33517 6.52906 6.53093 5.33304 8.00154 5.33304C9.47215 5.33304 10.6679 6.52906 10.6679 8C10.6679 9.47094 9.46858 10.667 8.00154 10.667ZM13.2272 3.73C13.2272 4.26197 12.7989 4.68682 12.2706 4.68682C11.7387 4.68682 11.314 4.2584 11.314 3.73C11.314 3.20161 11.7423 2.77318 12.2706 2.77318C12.7989 2.77318 13.2272 3.20161 13.2272 3.73ZM15.9435 4.7011C15.8829 3.41939 15.5902 2.28406 14.6514 1.34866C13.7162 0.413254 12.5811 0.120495 11.2997 0.0562312C9.97901 -0.0187437 6.0205 -0.0187437 4.69981 0.0562312C3.42195 0.116925 2.28687 0.409684 1.34811 1.34509C0.409349 2.28049 0.120224 3.41582 0.0559745 4.69753C-0.0189837 6.01852 -0.0189837 9.97791 0.0559745 11.2989C0.116655 12.5806 0.409349 13.7159 1.34811 14.6513C2.28687 15.5867 3.41838 15.8795 4.69981 15.9438C6.0205 16.0187 9.97901 16.0187 11.2997 15.9438C12.5811 15.8831 13.7162 15.5903 14.6514 14.6513C15.5866 13.7159 15.8793 12.5806 15.9435 11.2989C16.0185 9.97791 16.0185 6.02209 15.9435 4.7011ZM14.2373 12.7163C13.9589 13.416 13.4199 13.9551 12.7168 14.2372C11.6638 14.6549 9.16518 14.5585 8.00154 14.5585C6.8379 14.5585 4.33573 14.6513 3.28631 14.2372C2.5867 13.9587 2.04772 13.4196 1.76573 12.7163C1.34811 11.6631 1.44449 9.1639 1.44449 8C1.44449 6.8361 1.35168 4.33337 1.76573 3.28372C2.04415 2.58396 2.58314 2.04485 3.28631 1.7628C4.3393 1.34509 6.8379 1.44148 8.00154 1.44148C9.16518 1.44148 11.6674 1.34866 12.7168 1.7628C13.4164 2.04128 13.9554 2.58039 14.2373 3.28372C14.655 4.33694 14.5586 6.8361 14.5586 8C14.5586 9.1639 14.655 11.6666 14.2373 12.7163Z" fill="white"/>
</svg>
