<svg width="36" height="36" viewBox="0 0 36 36" fill="none" xmlns="http://www.w3.org/2000/svg">
<mask id="path-1-inside-1" fill="white">
<path fill-rule="evenodd" clip-rule="evenodd" d="M28.0459 11.1109L14.6091 24.5441L8.95406 18.8891"/>
</mask>
<path d="M14.6091 24.5441L13.1949 25.9583L14.6089 27.3723L16.0231 25.9585L14.6091 24.5441ZM26.6319 9.6965L13.1951 23.1297L16.0231 25.9585L29.46 12.5253L26.6319 9.6965ZM16.0233 23.1299L10.3683 17.4749L7.53985 20.3033L13.1949 25.9583L16.0233 23.1299Z" fill="#35CC35" mask="url(#path-1-inside-1)"/>
<path d="M35 18C35 27.3888 27.3888 35 18 35C8.61116 35 1 27.3888 1 18C1 8.61116 8.61116 1 18 1C27.3888 1 35 8.61116 35 18Z" stroke="#35CC35" stroke-width="2"/>
</svg>
