<svg width="130" height="40" viewBox="0 0 130 40" fill="none" xmlns="http://www.w3.org/2000/svg">
<g clip-path="url(#clip0)">
<path fill-rule="evenodd" clip-rule="evenodd" d="M20.3403 25.6855C17.6077 25.5242 15.4053 25.5646 15.4053 28.4678C15.4053 31.5726 17.6893 31.371 20.2587 31.1694C20.3811 35.8468 19.443 37.9436 23.9294 39.3146C28.579 40.7258 29.8433 37.5404 32.2497 36.5726C37.8373 34.3549 34.0442 34.4759 37.6742 30.3226C37.8373 30.1613 41.4264 21.371 38.082 20.5646L33.0246 20.4436C32.8207 26.5726 24.9083 27.6613 24.1334 20.4839C19.1983 20.121 20.2587 20.8468 20.3811 25.6855H20.3403Z" fill="url(#paint0_linear)" fill-opacity="0.960784"/>
<path fill-rule="evenodd" clip-rule="evenodd" d="M7.85974 19.8386C3.90355 21.5724 -1.80642 17.4595 0.599923 25.2015C1.13013 26.895 0.72228 28.3466 1.61956 29.7982C2.14977 30.645 2.43527 30.4837 2.96548 31.2499L3.78119 33.2257C4.55612 35.645 4.71926 35.524 6.79932 36.2902C10.0622 37.4999 10.7963 40.2015 15.0788 39.4757C18.831 38.8305 19.7283 36.6934 19.2389 32.2579C16.3431 32.0966 14.4262 31.4111 14.3854 28.3869C14.3446 25.3628 17.5259 24.9999 19.035 24.3144L19.1981 20.4434L14.0184 20.3628C14.7525 15.0402 8.92016 13.8708 7.9821 19.4353C7.94131 19.516 7.94131 19.7176 7.90053 19.8386H7.85974Z" fill="url(#paint1_linear)" fill-opacity="0.960784"/>
<path fill-rule="evenodd" clip-rule="evenodd" d="M6.71838 19.3145L7.24859 17.8226C8.9208 12.9435 12.9586 14.3548 14.1821 15.9677C15.0386 17.0564 14.9978 18.3467 15.6096 19.3548L19.3619 19.3145L19.4027 13.9919C24.8679 14.9596 26.8664 8.18545 19.6066 8.2661C18.7501 4.67739 21.0341 -1.29035 14.7939 0.241906C13.3664 0.604809 13.6519 0.92739 12.7138 1.49191C10.0628 3.06449 8.6353 1.16933 6.51445 5.04029C5.16853 7.54029 4.59753 6.53223 3.70025 8.87094C3.33318 9.79836 3.33318 10.5645 2.92533 11.3709C2.88454 11.4113 -0.745366 15.6048 0.845269 18.5484C1.66098 20.0806 2.96611 19.5564 6.71838 19.3951V19.3145Z" fill="url(#paint2_linear)" fill-opacity="0.960784"/>
<path fill-rule="evenodd" clip-rule="evenodd" d="M20.5042 1.29025L20.2188 7.21767C26.7036 7.41928 27.7233 14.1128 20.3819 15.4838L20.4227 19.4757H25.6432C24.6644 24.9596 32.2097 26.2902 31.3532 19.4757L38.6538 19.3144C39.3064 15.2822 39.0209 14.7177 37.0632 11.8951C35.8396 10.1612 36.5737 10.1612 35.7988 8.50799C34.9831 6.69347 34.4121 7.4596 33.3925 5.68541C30.6598 0.887021 31.394 3.30638 27.5194 1.81444C26.0511 1.24992 25.4801 -1.57266 20.4635 1.24992L20.5042 1.29025Z" fill="white"/>
<path fill-rule="evenodd" clip-rule="evenodd" d="M20.5042 1.29025L20.2188 7.21767C26.7036 7.41928 27.7233 14.1128 20.3819 15.4838L20.4227 19.4757H25.6432C24.6644 24.9596 32.2097 26.2902 31.3532 19.4757L38.6538 19.3144C39.3064 15.2822 39.0209 14.7177 37.0632 11.8951C35.8396 10.1612 36.5737 10.1612 35.7988 8.50799C34.9831 6.69347 34.4121 7.4596 33.3925 5.68541C30.6598 0.887021 31.394 3.30638 27.5194 1.81444C26.0511 1.24992 25.4801 -1.57266 20.4635 1.24992L20.5042 1.29025Z" fill="url(#paint3_linear)"/>
<path d="M46.3614 28.8376C46.443 28.8376 46.5246 28.8779 46.6062 28.9182C46.6877 28.9989 46.6877 29.0795 46.6877 29.1601C46.6877 29.2408 46.6469 29.3214 46.6062 29.4021C46.5246 29.4827 46.443 29.4827 46.3614 29.4827C46.2799 29.4827 46.1983 29.4424 46.1167 29.4021C46.0352 29.3214 46.0352 29.2408 46.0352 29.1601C46.0352 29.0795 46.0759 28.9989 46.1167 28.9182C46.1983 28.8376 46.2799 28.8376 46.3614 28.8376ZM46.1575 30.1279H46.5654V33.273H46.1575V30.1279ZM47.7481 30.1279H48.156V30.6924C48.3191 30.4908 48.4823 30.3295 48.6862 30.2085C48.8901 30.0876 49.0941 30.0472 49.3388 30.0472C49.5835 30.0472 49.7874 30.0876 49.9506 30.2085C50.1545 30.3295 50.2768 30.4908 50.3584 30.6924C50.44 30.894 50.4808 31.2166 50.4808 31.6198V33.2327H50.0729V31.7408C50.0729 31.3779 50.0729 31.1359 50.0321 31.015C49.9913 30.8134 49.9098 30.6521 49.7466 30.5311C49.6243 30.4101 49.4204 30.3698 49.2164 30.3698C48.9717 30.3698 48.7678 30.4505 48.5639 30.6118C48.3599 30.773 48.2376 30.9747 48.1968 31.2166C48.156 31.3779 48.156 31.6601 48.156 32.0634V33.1924H47.7481V30.0472V30.1279ZM51.7043 30.1279H52.1122V30.6924C52.2753 30.4908 52.4385 30.3295 52.6424 30.2085C52.8463 30.0876 53.0503 30.0472 53.295 30.0472C53.5397 30.0472 53.7436 30.0876 53.9068 30.2085C54.1107 30.3295 54.233 30.4908 54.3146 30.6924C54.3962 30.894 54.437 31.2166 54.437 31.6198V33.2327H54.0291V31.7408C54.0291 31.3779 54.0291 31.1359 53.9883 31.015C53.9475 30.8134 53.866 30.6521 53.7028 30.5311C53.5805 30.4101 53.3765 30.3698 53.1726 30.3698C52.9279 30.3698 52.724 30.4505 52.52 30.6118C52.3161 30.773 52.1938 30.9747 52.153 31.2166C52.1122 31.3779 52.1122 31.6601 52.1122 32.0634V33.1924H51.7043V30.0472V30.1279ZM57.1696 30.0472C57.659 30.0472 58.0669 30.2085 58.3932 30.5714C58.6787 30.894 58.8418 31.2569 58.8418 31.7005C58.8418 32.144 58.6787 32.5069 58.3932 32.8295C58.0669 33.1521 57.6998 33.3134 57.2104 33.3134C56.721 33.3134 56.3131 33.1521 56.0276 32.8295C55.7013 32.5069 55.579 32.1037 55.579 31.7005C55.579 31.2569 55.7421 30.894 56.0276 30.5714C56.3539 30.2085 56.7617 30.0472 57.2512 30.0472H57.1696ZM57.1696 30.4505C56.8433 30.4505 56.5578 30.5714 56.3131 30.8134C56.0684 31.0553 55.946 31.3779 55.946 31.7005C55.946 31.9424 55.9868 32.144 56.1092 32.3456C56.2315 32.5472 56.3539 32.7085 56.5578 32.7892C56.7617 32.9101 56.9657 32.9505 57.1696 32.9505C57.4143 32.9505 57.6182 32.9101 57.7814 32.7892C57.9853 32.6682 58.1077 32.5472 58.23 32.3456C58.3524 32.144 58.3932 31.9424 58.3932 31.7005C58.3932 31.3376 58.2708 31.0553 58.0261 30.8134C57.7814 30.5714 57.4959 30.4505 57.1696 30.4505ZM59.4944 30.1279H59.9022L60.8811 32.3859L61.9007 30.1279H61.9823L63.0019 32.3859L63.9808 30.1279H64.3886L63.0019 33.273H62.9203L61.9007 31.015L60.8811 33.273H60.7995L59.4536 30.1279H59.4944ZM68.3448 30.1279V33.273H67.937V32.7488C67.7738 32.9505 67.5699 33.1118 67.366 33.1924C67.162 33.3134 66.9173 33.3537 66.6726 33.3537C66.224 33.3537 65.8569 33.1924 65.5306 32.8698C65.2043 32.5472 65.0412 32.144 65.0412 31.7005C65.0412 31.2569 65.2043 30.8537 65.5306 30.5311C65.8569 30.2085 66.224 30.0472 66.6726 30.0472C66.9173 30.0472 67.162 30.0876 67.366 30.2085C67.5699 30.3295 67.7738 30.4908 67.937 30.6924V30.1279H68.3448ZM66.7134 30.4505C66.4687 30.4505 66.2648 30.4908 66.1016 30.6118C65.8977 30.7327 65.7753 30.894 65.653 31.0553C65.5306 31.2569 65.4898 31.4585 65.4898 31.7005C65.4898 31.9021 65.5306 32.144 65.653 32.3456C65.7753 32.5472 65.9385 32.7085 66.1016 32.8295C66.3055 32.9505 66.5095 32.9908 66.7134 32.9908C66.9173 32.9908 67.162 32.9505 67.3252 32.8295C67.5291 32.7085 67.6922 32.5876 67.7738 32.3859C67.8962 32.1843 67.937 31.9827 67.937 31.7408C67.937 31.3779 67.8146 31.0956 67.5699 30.8537C67.3252 30.6118 67.0397 30.4908 66.6726 30.4908L66.7134 30.4505ZM72.6681 30.773L72.3418 30.9747C72.0563 30.6118 71.6892 30.4101 71.1998 30.4101C70.8327 30.4101 70.5064 30.5311 70.2209 30.773C69.9762 31.015 69.8539 31.2972 69.8539 31.6601C69.8539 31.9021 69.8947 32.1037 70.017 32.3053C70.1394 32.5069 70.3025 32.6682 70.5064 32.7892C70.7104 32.9101 70.9551 32.9505 71.1998 32.9505C71.6484 32.9505 72.0563 32.7488 72.3418 32.3859L72.6681 32.5876C72.5049 32.8295 72.301 32.9908 72.0563 33.1118C71.8116 33.2327 71.5261 33.3134 71.1998 33.3134C70.7104 33.3134 70.2617 33.1521 69.9354 32.8295C69.6092 32.5069 69.446 32.144 69.446 31.7005C69.446 31.4182 69.5276 31.1359 69.6907 30.8537C69.8539 30.6118 70.0578 30.4101 70.3433 30.2489C70.6288 30.0876 70.9143 30.0472 71.2406 30.0472C71.4445 30.0472 71.6484 30.0876 71.8524 30.1279C72.0563 30.2085 72.2194 30.2892 72.3418 30.3698C72.4641 30.4908 72.5865 30.6118 72.7089 30.773H72.6681ZM73.443 30.1279H73.8509L74.9521 32.5069L76.0125 30.1279H76.4611L74.585 34.4021H74.1364L74.7481 32.9908L73.443 30.1279ZM77.4808 28.8376C77.5623 28.8376 77.6439 28.8779 77.7255 28.9182C77.807 28.9989 77.807 29.0795 77.807 29.1601C77.807 29.2408 77.7663 29.3214 77.7255 29.4021C77.6439 29.4827 77.6031 29.4827 77.4808 29.4827C77.3992 29.4827 77.3176 29.4424 77.236 29.4021C77.1545 29.3214 77.1545 29.2408 77.1545 29.1601C77.1545 29.0795 77.1953 28.9989 77.236 28.9182C77.3176 28.8376 77.3584 28.8376 77.4808 28.8376ZM77.2768 30.1279H77.6847V33.7166C77.6847 33.9988 77.6439 34.1601 77.5215 34.2811C77.44 34.4021 77.2768 34.4424 77.1137 34.4424C76.9913 34.4424 76.8282 34.4021 76.6651 34.3618V33.9988C76.7874 34.0392 76.869 34.0795 76.9506 34.0795C77.0729 34.0795 77.1545 34.0392 77.1953 33.9585C77.236 33.9182 77.236 33.7972 77.236 33.5956V30.1279H77.2768ZM78.8675 30.1279H79.2753V30.6924C79.4385 30.4908 79.6016 30.3295 79.8055 30.2085C80.0095 30.0876 80.2134 30.0472 80.4581 30.0472C80.7028 30.0472 80.9067 30.0876 81.0699 30.2085C81.2738 30.3295 81.3962 30.4908 81.4777 30.6924C81.5593 30.894 81.6001 31.2166 81.6001 31.6198V33.2327H81.1922V31.7408C81.1922 31.3779 81.1922 31.1359 81.1515 31.015C81.1107 30.8134 81.0291 30.6521 80.866 30.5311C80.7436 30.4101 80.5397 30.3698 80.3357 30.3698C80.091 30.3698 79.8871 30.4505 79.6832 30.6118C79.4793 30.773 79.3569 30.9747 79.3161 31.2166C79.2753 31.3779 79.2753 31.6601 79.2753 32.0634V33.1924H78.8675V30.0472V30.1279ZM82.4974 30.1279H82.9052L84.0064 32.5069L85.0669 30.1279H85.5155L83.6394 34.4021H83.1907L83.8025 32.9908L82.4974 30.1279ZM89.6348 30.4505L89.3901 30.7327C89.1862 30.5311 88.9415 30.4101 88.7376 30.4101C88.6152 30.4101 88.4928 30.4505 88.4113 30.5311C88.3297 30.6118 88.2889 30.7327 88.2889 30.8134C88.2889 30.9343 88.3297 31.015 88.4113 31.0956C88.4928 31.1763 88.656 31.2972 88.9007 31.4182C89.1862 31.5795 89.3901 31.7408 89.5125 31.8618C89.6348 32.023 89.6756 32.1843 89.6756 32.3456C89.6756 32.5876 89.594 32.8295 89.3901 32.9908C89.227 33.1521 88.9823 33.273 88.6968 33.273C88.5336 33.273 88.3297 33.2327 88.1666 33.1521C88.0034 33.0714 87.8811 32.9505 87.7587 32.8295L88.0034 32.5472C88.2073 32.7892 88.4521 32.9101 88.656 32.9101C88.8191 32.9101 88.9415 32.8698 89.0638 32.7488C89.1862 32.6279 89.227 32.5069 89.227 32.3859C89.227 32.265 89.1862 32.1843 89.1046 32.0634C89.0231 31.9827 88.8599 31.8618 88.5744 31.7408C88.2889 31.5795 88.085 31.4585 88.0034 31.2972C87.8811 31.1359 87.8403 31.015 87.8403 30.8134C87.8403 30.5714 87.9218 30.3698 88.085 30.2085C88.2481 30.0472 88.4521 29.9666 88.6968 29.9666C88.9823 29.9666 89.2678 30.0876 89.594 30.3698L89.6348 30.4505ZM90.6953 30.1279H91.1031V30.6924C91.2663 30.4908 91.4294 30.3295 91.6741 30.2085C91.878 30.0876 92.1227 30.0472 92.3675 30.0472C92.8161 30.0472 93.1832 30.2085 93.5095 30.5311C93.8357 30.8537 93.9989 31.2166 93.9989 31.7005C93.9989 32.144 93.8357 32.5472 93.5095 32.8698C93.1832 33.1924 92.8161 33.3537 92.3675 33.3537C92.1227 33.3537 91.878 33.3134 91.6741 33.1924C91.4702 33.0714 91.2663 32.9505 91.1031 32.7488V34.4424H90.6953V30.1682V30.1279ZM92.3267 30.4505C91.9596 30.4505 91.6741 30.5714 91.4294 30.8134C91.1847 31.0553 91.0623 31.3376 91.0623 31.7005C91.0623 31.9424 91.1031 32.144 91.2255 32.3456C91.3478 32.5472 91.4702 32.6682 91.6741 32.7892C91.878 32.9101 92.082 32.9505 92.3267 32.9505C92.5306 32.9505 92.7345 32.9101 92.9385 32.7892C93.1424 32.6682 93.2647 32.5069 93.3871 32.3053C93.5095 32.1037 93.5502 31.9021 93.5502 31.6601C93.5502 31.4182 93.5095 31.2166 93.3871 31.015C93.2647 30.8134 93.1016 30.6521 92.9385 30.5714C92.7345 30.4505 92.5306 30.4101 92.3267 30.4101V30.4505ZM96.6092 30.0472C97.0986 30.0472 97.5064 30.2085 97.8327 30.5714C98.1182 30.894 98.2814 31.2569 98.2814 31.7005C98.2814 32.144 98.1182 32.5069 97.8327 32.8295C97.5064 33.1521 97.1394 33.3134 96.6499 33.3134C96.1605 33.3134 95.7527 33.1521 95.4672 32.8295C95.1409 32.5069 95.0185 32.1037 95.0185 31.7005C95.0185 31.2569 95.1817 30.894 95.4672 30.5714C95.7934 30.2085 96.2013 30.0472 96.6907 30.0472H96.6092ZM96.6092 30.4505C96.2829 30.4505 95.9974 30.5714 95.7527 30.8134C95.5079 31.0553 95.3856 31.3779 95.3856 31.7005C95.3856 31.9424 95.4264 32.144 95.5487 32.3456C95.6711 32.5472 95.7934 32.7085 95.9974 32.7892C96.2013 32.9101 96.4052 32.9505 96.6092 32.9505C96.8539 32.9505 97.0578 32.9101 97.2209 32.7892C97.4249 32.6682 97.5472 32.5472 97.6696 32.3456C97.7919 32.144 97.8327 31.9424 97.8327 31.7005C97.8327 31.3376 97.7104 31.0553 97.4656 30.8134C97.2209 30.5714 96.9354 30.4505 96.6092 30.4505ZM100.932 30.4908L100.688 30.773C100.484 30.5714 100.239 30.4505 100.035 30.4505C99.9128 30.4505 99.7904 30.4908 99.7089 30.5714C99.6273 30.6521 99.5865 30.773 99.5865 30.8537C99.5865 30.9747 99.6273 31.0553 99.7089 31.1359C99.7904 31.2166 99.9536 31.3376 100.198 31.4585C100.484 31.6198 100.688 31.7811 100.81 31.9021C100.932 32.0634 100.973 32.2247 100.973 32.3859C100.973 32.6279 100.892 32.8698 100.688 33.0311C100.525 33.1924 100.28 33.3134 99.9943 33.3134C99.8312 33.3134 99.6273 33.273 99.4641 33.1924C99.301 33.1118 99.1786 32.9908 99.0563 32.8698L99.301 32.5876C99.5049 32.8295 99.7496 32.9505 99.9536 32.9505C100.117 32.9505 100.239 32.9101 100.361 32.7892C100.484 32.6682 100.525 32.5472 100.525 32.4263C100.525 32.3053 100.484 32.2247 100.402 32.1037C100.321 32.023 100.157 31.9021 99.872 31.7811C99.5865 31.6198 99.3826 31.4989 99.301 31.3376C99.1786 31.1763 99.1378 31.0553 99.1378 30.8537C99.1378 30.6118 99.2194 30.4101 99.3826 30.2489C99.5457 30.0876 99.7496 30.0069 99.9943 30.0069C100.28 30.0069 100.565 30.1279 100.892 30.4101L100.932 30.4908ZM106.275 33.273V28.9182H106.683V30.6521C106.846 30.4505 107.05 30.2892 107.254 30.1682C107.458 30.0472 107.703 30.0069 107.948 30.0069C108.396 30.0069 108.763 30.1682 109.09 30.4908C109.416 30.8134 109.579 31.2166 109.579 31.6601C109.579 32.1037 109.416 32.5069 109.09 32.8295C108.763 33.1521 108.396 33.3134 107.948 33.3134C107.703 33.3134 107.458 33.273 107.254 33.1521C107.05 33.0311 106.846 32.8698 106.683 32.6682V33.2327H106.275V33.273ZM107.907 32.9505C108.151 32.9505 108.355 32.9101 108.519 32.7892C108.722 32.6682 108.845 32.5069 108.967 32.3456C109.09 32.144 109.13 31.9424 109.13 31.7005C109.13 31.4988 109.09 31.2569 108.967 31.0553C108.845 30.8537 108.682 30.6924 108.519 30.5714C108.315 30.4505 108.111 30.4101 107.907 30.4101C107.703 30.4101 107.458 30.4505 107.254 30.5714C107.05 30.6924 106.887 30.8134 106.806 31.015C106.683 31.2166 106.642 31.4182 106.642 31.6601C106.642 32.023 106.765 32.3053 107.009 32.5472C107.254 32.7892 107.54 32.9101 107.907 32.9101V32.9505ZM112.312 30.1279H112.719V30.6924C112.883 30.4908 113.046 30.3295 113.25 30.2085C113.454 30.0876 113.657 30.0472 113.902 30.0472C114.147 30.0472 114.351 30.0876 114.514 30.2085C114.718 30.3295 114.84 30.4908 114.922 30.6924C115.003 30.894 115.044 31.2166 115.044 31.6198V33.2327H114.636V31.7408C114.636 31.3779 114.636 31.1359 114.596 31.015C114.555 30.8134 114.473 30.6521 114.31 30.5311C114.188 30.4101 113.984 30.3698 113.78 30.3698C113.535 30.3698 113.331 30.4505 113.127 30.6118C112.923 30.773 112.801 30.9747 112.76 31.2166C112.719 31.3779 112.719 31.6601 112.719 32.0634V33.1924H112.312V30.0472V30.1279ZM119.449 30.1279V33.273H119.041V32.7488C118.878 32.9505 118.674 33.1118 118.47 33.1924C118.266 33.3134 118.022 33.3537 117.777 33.3537C117.328 33.3537 116.961 33.1924 116.635 32.8698C116.309 32.5472 116.145 32.144 116.145 31.7005C116.145 31.2569 116.309 30.8537 116.635 30.5311C116.961 30.2085 117.328 30.0472 117.777 30.0472C118.022 30.0472 118.266 30.0876 118.47 30.2085C118.674 30.3295 118.878 30.4908 119.041 30.6924V30.1279H119.449ZM117.818 30.4505C117.573 30.4505 117.369 30.4908 117.206 30.6118C117.002 30.7327 116.88 30.894 116.757 31.0553C116.635 31.2569 116.594 31.4585 116.594 31.7005C116.594 31.9021 116.635 32.144 116.757 32.3456C116.88 32.5472 117.043 32.7085 117.206 32.8295C117.41 32.9505 117.614 32.9908 117.818 32.9908C118.022 32.9908 118.266 32.9505 118.429 32.8295C118.633 32.7085 118.796 32.5876 118.878 32.3859C119 32.1843 119.041 31.9827 119.041 31.7408C119.041 31.3779 118.919 31.0956 118.674 30.8537C118.429 30.6118 118.144 30.4908 117.777 30.4908L117.818 30.4505ZM120.632 30.1279H121.04V31.5795C121.04 31.9424 121.04 32.1843 121.08 32.3053C121.121 32.5069 121.244 32.6279 121.407 32.7488C121.57 32.8698 121.774 32.9101 121.978 32.9101C122.222 32.9101 122.386 32.8698 122.549 32.7488C122.712 32.6279 122.834 32.5069 122.875 32.3053C122.916 32.1843 122.957 31.9424 122.957 31.5392V30.0876H123.364V31.6198C123.364 32.0634 123.324 32.3859 123.201 32.5876C123.12 32.7892 122.957 32.9908 122.753 33.1118C122.549 33.2327 122.304 33.3134 121.978 33.3134C121.651 33.3134 121.407 33.2327 121.203 33.1118C120.999 32.9908 120.836 32.8295 120.754 32.5876C120.632 32.3859 120.591 32.023 120.591 31.5795V30.0876L120.632 30.1279ZM124.629 28.9182H125.037V31.3779L126.505 30.1279H127.076L125.322 31.6198L127.157 33.273H126.586L124.996 31.8618V33.273H124.588V28.9182H124.629ZM128.096 28.8376C128.177 28.8376 128.259 28.8779 128.34 28.9182C128.422 28.9989 128.422 29.0795 128.422 29.1601C128.422 29.2408 128.381 29.3214 128.34 29.4021C128.259 29.4827 128.177 29.4827 128.096 29.4827C128.014 29.4827 127.932 29.4424 127.851 29.4021C127.769 29.3214 127.769 29.2408 127.769 29.1601C127.769 29.0795 127.81 28.9989 127.851 28.9182C127.932 28.8376 128.014 28.8376 128.096 28.8376ZM127.892 30.1279H128.299V33.273H127.892V30.1279ZM103.502 30.0472C103.991 30.0472 104.399 30.2085 104.725 30.5714C105.011 30.894 105.174 31.2569 105.174 31.7005C105.174 32.144 105.011 32.5069 104.725 32.8295C104.399 33.1521 104.032 33.3134 103.543 33.3134C103.053 33.3134 102.645 33.1521 102.36 32.8295C102.034 32.5069 101.911 32.1037 101.911 31.7005C101.911 31.2569 102.074 30.894 102.36 30.5714C102.686 30.2085 103.094 30.0472 103.583 30.0472H103.502ZM103.502 30.4505C103.176 30.4505 102.89 30.5714 102.645 30.8134C102.401 31.0553 102.278 31.3779 102.278 31.7005C102.278 31.9424 102.319 32.144 102.441 32.3456C102.564 32.5472 102.686 32.7085 102.89 32.7892C103.094 32.9101 103.298 32.9505 103.502 32.9505C103.747 32.9505 103.951 32.9101 104.114 32.7892C104.318 32.6682 104.44 32.5472 104.562 32.3456C104.685 32.144 104.725 31.9424 104.725 31.7005C104.725 31.3376 104.603 31.0553 104.358 30.8134C104.114 30.5714 103.828 30.4505 103.502 30.4505ZM103.706 28.6763H104.318L103.461 29.5634H103.053L103.706 28.6763Z" fill="white"/>
<path d="M47.9915 9.4021H54.1909C55.2513 9.44242 55.9854 9.84565 56.3525 10.6118C56.4749 10.9344 56.5564 11.1763 56.5564 11.3779C56.5564 11.9424 56.3117 12.4666 55.8223 12.9908C55.4144 13.2731 54.925 13.4344 54.354 13.4344H50.1939C49.9492 13.4344 49.8268 13.515 49.8268 13.636V15.0069C49.8268 15.1279 49.9492 15.2086 50.1939 15.2086H54.1909C54.8842 15.2086 55.3736 15.3295 55.6591 15.5715C55.9854 15.7327 56.2301 16.136 56.4749 16.7811C56.5156 16.9021 56.5156 16.9827 56.5156 17.1037V17.1844C56.5156 18.0311 56.1078 18.636 55.2513 19.0392C55.0474 19.1198 54.7211 19.1602 54.3132 19.1602H50.1531C49.9084 19.1602 49.786 19.2811 49.786 19.5231V20.7731C49.786 20.9344 49.8676 21.015 50.0308 21.015H54.7211C55.0881 21.015 55.496 21.2166 55.9446 21.6198C56.3117 22.0634 56.5156 22.5069 56.5156 22.9505C56.5156 23.636 56.1894 24.1602 55.5776 24.644C55.1697 24.8456 54.8434 24.9666 54.6395 24.9666H48.1954C46.564 24.9666 45.7891 24.2811 45.7891 22.9102V11.4989C45.7891 10.1682 46.5232 9.48274 48.0323 9.48274L47.9915 9.4021Z" fill="white"/>
<path d="M61.3293 9.4021H64.5105C66.2643 9.44242 67.9365 10.1279 69.5271 11.4586C69.5271 11.4989 69.6495 11.6198 69.8534 11.7811C70.5876 12.5876 71.0362 13.2327 71.2809 13.7973C71.6072 14.4021 71.8519 15.1682 72.0558 16.1763C72.0558 16.3779 72.0558 16.4989 72.0966 16.4989C72.0966 16.5392 72.0966 16.5392 72.0558 16.5392C72.0966 16.7811 72.0966 16.9021 72.0966 16.9827C72.0966 19.8456 70.9138 22.0634 68.5075 23.7166C67.1208 24.5231 65.7749 24.9263 64.5105 24.9263H60.5135C60.1873 24.9263 59.7794 24.6844 59.29 24.2005C58.9229 23.7166 58.7598 23.2731 58.7598 22.7489V12.5473C58.7598 11.3376 58.8821 10.6521 59.1268 10.4908C59.4531 9.80533 60.1873 9.44242 61.37 9.44242L61.3293 9.4021ZM63.0015 13.394C62.9607 13.394 62.8791 13.515 62.8383 13.7166V20.6521C62.8791 20.8537 62.9199 20.9344 62.9607 20.9344H64.6737C65.4486 20.8537 66.1419 20.5311 66.8353 20.0473C67.4471 19.4424 67.8549 18.8376 68.0181 18.2327C68.0589 17.9908 68.1404 17.6279 68.222 17.1037C68.222 16.4586 67.9773 15.7731 67.5286 14.9666C66.6314 13.9182 65.6525 13.3537 64.5921 13.3537H63.0422L63.0015 13.394Z" fill="white"/>
<path d="M76.3386 9.6038C76.7872 9.64412 77.2358 9.84574 77.6845 10.128C78.1331 10.5312 78.3778 11.1764 78.3778 12.1441V18.999C78.4186 19.5635 78.5818 20.007 78.908 20.3699C79.4383 20.7328 79.7238 20.9344 79.8461 20.9344C80.0908 21.0151 80.3355 21.0554 80.5803 21.0554C81.1105 20.9748 81.5183 20.8135 81.8446 20.5715C82.3748 20.0877 82.6195 19.5635 82.6195 19.0796V12.8296C82.6195 11.499 82.7419 10.7328 82.9458 10.5715C83.3945 9.9667 83.9247 9.64412 84.4957 9.64412H84.6996C85.4745 9.64412 86.0863 10.0473 86.4942 10.8538C86.5757 11.0554 86.6165 11.3377 86.6981 11.7006V18.5957C86.6573 19.5635 86.4941 20.4103 86.2086 21.1361C85.9231 21.8619 85.3522 22.628 84.5364 23.4344C83.3944 24.2812 82.3748 24.7248 81.5591 24.8054C81.1512 24.8457 80.8658 24.8861 80.621 24.8861C79.0712 24.8861 77.7253 24.4022 76.6241 23.4748C76.2162 23.1119 76.0123 22.9103 76.0123 22.8699C75.9715 22.8699 75.8899 22.7893 75.7676 22.5877C75.4005 22.2248 75.115 21.7409 74.8703 21.0957C74.7479 20.8538 74.5848 20.3296 74.4624 19.5635H74.4216L74.4624 19.5232C74.4216 19.1603 74.4216 18.878 74.4216 18.7167L74.3809 11.7006C74.3809 10.6925 74.8703 10.007 75.8084 9.68444C75.9307 9.64412 76.1346 9.6038 76.4201 9.56348L76.3386 9.6038Z" fill="white"/>
<path d="M90.8996 9.52295C91.4706 9.52295 91.96 9.80521 92.4495 10.3294C92.735 10.7729 92.8981 11.2165 92.8981 11.7004V15.2488H96.6912C96.732 15.2488 96.7727 15.2084 96.8135 15.1278V11.781C96.8135 10.8536 97.2214 10.1681 98.0371 9.72456C98.0779 9.72456 98.241 9.68424 98.6081 9.60359H98.7712C99.7093 9.60359 100.321 10.0875 100.729 11.0955L100.811 11.781V22.8697C100.811 23.7165 100.362 24.3617 99.4646 24.8052C99.1383 24.8859 98.9344 24.9262 98.7712 24.9262C97.8332 24.9262 97.1806 24.4423 96.8951 23.4746C96.8543 23.3536 96.8135 23.2326 96.8135 23.031V19.3213C96.8135 19.281 96.7727 19.2407 96.6912 19.2004H93.102C92.9389 19.2004 92.8573 19.281 92.8573 19.402V21.8617C92.8573 23.1923 92.6942 23.9584 92.4087 24.0794C92.4087 24.2407 92.1232 24.4826 91.5114 24.7649C91.2259 24.8455 91.0628 24.8859 90.9812 24.8859C89.7576 24.9262 89.0643 24.281 88.8604 22.9907V11.4584C88.8604 10.5713 89.3906 9.9665 90.4918 9.60359C90.6549 9.56327 90.8181 9.56327 90.9404 9.56327L90.8996 9.52295Z" fill="url(#paint4_linear)"/>
<path d="M105.01 9.6038C105.459 9.64412 105.908 9.84574 106.356 10.128C106.805 10.5312 107.05 11.1764 107.05 12.1441V18.999C107.09 19.5635 107.254 20.007 107.58 20.3699C108.11 20.7328 108.396 20.9344 108.518 20.9344C108.763 21.0151 109.007 21.0554 109.252 21.0554C109.782 20.9748 110.19 20.8135 110.516 20.5715C111.047 20.0877 111.291 19.5635 111.291 19.0796V12.8296C111.291 11.499 111.414 10.7328 111.618 10.5715C112.066 9.9667 112.597 9.64412 113.168 9.64412H113.371C114.146 9.64412 114.758 10.0473 115.166 10.8538C115.248 11.0554 115.288 11.3377 115.37 11.7006V18.5957C115.329 19.5635 115.166 20.4103 114.881 21.1361C114.595 21.8619 114.024 22.628 113.208 23.4344C112.066 24.2812 111.047 24.7248 110.231 24.8054C109.823 24.8457 109.538 24.8861 109.293 24.8861C107.743 24.8861 106.397 24.4022 105.296 23.4748C104.888 23.1119 104.684 22.9103 104.684 22.8699C104.643 22.8699 104.562 22.7893 104.439 22.5877C104.072 22.2248 103.787 21.7409 103.542 21.0957C103.42 20.8538 103.257 20.3296 103.134 19.5635H103.094L103.134 19.5232C103.094 19.1603 103.094 18.878 103.094 18.7167L103.053 11.7006C103.053 10.6925 103.542 10.007 104.48 9.68444C104.603 9.64412 104.807 9.6038 105.092 9.56348L105.01 9.6038Z" fill="url(#paint5_linear)"/>
<path d="M124.383 9.44242C126.422 9.44242 127.972 10.3698 128.91 12.2247C129.195 12.9505 129.318 13.5553 129.318 14.0795C129.318 15.0876 128.992 15.9747 128.298 16.8215V16.9021C129.399 17.8698 129.97 18.9989 129.97 20.2892C129.93 20.5311 129.93 20.6924 129.93 20.7327C129.807 21.4586 129.562 22.1037 129.195 22.5876C128.788 23.3537 127.972 23.9989 126.748 24.5634L125.933 24.8457H119.488C118.673 24.8457 118.02 24.3618 117.572 23.394C117.531 23.1521 117.49 22.9908 117.49 22.8698L117.449 11.2973C117.449 10.4505 117.939 9.84565 118.958 9.48274L119.896 9.4021H124.342L124.383 9.44242ZM121.609 13.4344V15.1279H124.464C124.75 15.1279 125.035 14.886 125.28 14.3618C125.28 13.9182 125.076 13.5553 124.627 13.3537L121.569 13.394L121.609 13.4344ZM121.854 19.0795C121.65 19.0795 121.569 19.1602 121.569 19.3618V20.8537C121.609 20.8537 121.609 20.8537 121.609 20.894H125.117C125.484 20.894 125.729 20.6118 125.892 20.0876C125.892 19.4021 125.525 19.0795 124.791 19.0795H121.854Z" fill="url(#paint6_linear)"/>
</g>
<defs>
<linearGradient id="paint0_linear" x1="30.9944" y1="20.4255" x2="21.2751" y2="40.0896" gradientUnits="userSpaceOnUse">
<stop stop-color="#FFF8D2"/>
<stop offset="1" stop-color="#D59900"/>
</linearGradient>
<linearGradient id="paint1_linear" x1="8.60971" y1="37.4467" x2="20.0303" y2="17.332" gradientUnits="userSpaceOnUse">
<stop stop-color="#F32727"/>
<stop offset="1" stop-color="#FDDBDB"/>
</linearGradient>
<linearGradient id="paint2_linear" x1="19.4027" y1="1.6532" x2="5.55742" y2="18.0593" gradientUnits="userSpaceOnUse">
<stop stop-color="#0FFFC5"/>
<stop offset="1" stop-color="#00B086"/>
</linearGradient>
<linearGradient id="paint3_linear" x1="37.7469" y1="5.61231" x2="23.7269" y2="19.1823" gradientUnits="userSpaceOnUse">
<stop offset="0.0585138" stop-color="#55F6E5"/>
<stop offset="1" stop-color="#16B1F3"/>
</linearGradient>
<linearGradient id="paint4_linear" x1="100.032" y1="13.1023" x2="89.4265" y2="21.0518" gradientUnits="userSpaceOnUse">
<stop stop-color="#55F6E5"/>
<stop offset="1" stop-color="#16B1F3"/>
</linearGradient>
<linearGradient id="paint5_linear" x1="114.568" y1="13.1241" x2="103.918" y2="21.3949" gradientUnits="userSpaceOnUse">
<stop stop-color="#55F6E5"/>
<stop offset="1" stop-color="#16B1F3"/>
</linearGradient>
<linearGradient id="paint6_linear" x1="129.155" y1="12.9908" x2="118.399" y2="21.4161" gradientUnits="userSpaceOnUse">
<stop stop-color="#55F6E5"/>
<stop offset="1" stop-color="#16B1F3"/>
</linearGradient>
<clipPath id="clip0">
<rect width="130" height="40" fill="white"/>
</clipPath>
</defs>
</svg>
