<svg width="1920" height="131" viewBox="0 0 1920 131" fill="none" xmlns="http://www.w3.org/2000/svg">
<path fill-rule="evenodd" clip-rule="evenodd" d="M1920 0H0V69.8132C0 69.8132 205.118 114.762 410.5 114.762C564.504 114.762 702.114 86.9191 841.703 58.6758L848.825 57.2347C861.091 59.8252 873.361 62.4334 885.636 65.0427C1040.37 97.9344 1195.93 131 1353 131C1551.31 131 1895.29 73.4933 1918.74 69.5338C1919.57 69.7177 1920 69.8132 1920 69.8132V0Z" fill="white"/>
<path opacity="0.45" fill-rule="evenodd" clip-rule="evenodd" d="M0 69.8133V69.2024C0 69.2024 216 0 428 0C580.196 0 732.516 32.3777 885.636 64.9256C1040.37 97.8174 1195.93 130.883 1353 130.883C1558.38 130.883 1920 69.2024 1920 69.2024V69.8133C1920 69.8133 1919.57 69.7178 1918.74 69.5338C1895.29 73.4934 1551.31 131 1353 131C1195.93 131 1040.37 97.9345 885.636 65.0427C873.361 62.4335 861.091 59.8253 848.825 57.2348L841.703 58.6758C702.114 86.9192 564.504 114.762 410.5 114.762C205.118 114.762 0 69.8133 0 69.8133Z" fill="url(#paint0_linear)"/>
<path opacity="0.85" fill-rule="evenodd" clip-rule="evenodd" d="M0 69.8133V69.6961C0 69.6961 205.118 114.645 410.5 114.645C564.504 114.645 702.114 86.8021 841.703 58.5587C985.364 29.4914 1131.12 0 1299 0C1608.5 0 1920 69.6961 1920 69.6961V69.8133C1920 69.8133 1919.57 69.7178 1918.74 69.5338C1895.29 73.4934 1551.31 131 1353 131C1195.93 131 1040.37 97.9345 885.636 65.0427C873.361 62.4335 861.091 59.8253 848.825 57.2348L841.703 58.6758C702.114 86.9192 564.504 114.762 410.5 114.762C205.118 114.762 0 69.8133 0 69.8133Z" fill="url(#paint1_linear)"/>
<defs>
<linearGradient id="paint0_linear" x1="961.725" y1="-307.579" x2="961.725" y2="914.757" gradientUnits="userSpaceOnUse">
<stop stop-color="#007ADF"/>
<stop offset="1" stop-color="#00ECBC"/>
</linearGradient>
<linearGradient id="paint1_linear" x1="958.275" y1="-309.773" x2="958.275" y2="921.283" gradientUnits="userSpaceOnUse">
<stop stop-color="#007ADF"/>
<stop offset="1" stop-color="#00ECBC"/>
</linearGradient>
</defs>
</svg>
